<mxfile host="Electron" agent="Mozilla/5.0 (Windows NT 10.0; Win64; x64) AppleWebKit/537.36 (KHTML, like Gecko) draw.io/26.0.4 Chrome/128.0.6613.186 Electron/32.2.5 Safari/537.36" version="26.0.4">
  <diagram name="Page-1" id="rjwEgcaiLJZMq75zWwEi">
    <mxGraphModel dx="1816" dy="577" grid="1" gridSize="10" guides="1" tooltips="1" connect="1" arrows="1" fold="1" page="1" pageScale="1" pageWidth="827" pageHeight="1169" math="0" shadow="0">
      <root>
        <mxCell id="0" />
        <mxCell id="1" parent="0" />
        <mxCell id="LIRwoS4u0499D45nPthz-1" value="" style="rounded=0;whiteSpace=wrap;html=1;strokeWidth=3;" parent="1" vertex="1">
          <mxGeometry x="360" y="200" width="80" height="240" as="geometry" />
        </mxCell>
        <mxCell id="LIRwoS4u0499D45nPthz-2" value="" style="rounded=0;whiteSpace=wrap;html=1;fillColor=#B9E0A5;strokeWidth=3;" parent="1" vertex="1">
          <mxGeometry x="80" y="200" width="160" height="240" as="geometry" />
        </mxCell>
        <mxCell id="LIRwoS4u0499D45nPthz-3" value="" style="rounded=0;whiteSpace=wrap;html=1;fillColor=#B9E0A5;strokeWidth=3;" parent="1" vertex="1">
          <mxGeometry x="560" y="200" width="160" height="240" as="geometry" />
        </mxCell>
        <mxCell id="LIRwoS4u0499D45nPthz-4" value="&lt;b&gt;&lt;font style=&quot;font-size: 15px;&quot;&gt;Mass Storage&lt;/font&gt;&lt;/b&gt;&lt;div&gt;&lt;b&gt;&lt;font style=&quot;font-size: 15px;&quot;&gt;úloha&lt;/font&gt;&lt;/b&gt;&lt;/div&gt;" style="text;html=1;align=center;verticalAlign=middle;whiteSpace=wrap;rounded=0;" parent="1" vertex="1">
          <mxGeometry x="560" y="280" width="160" height="90" as="geometry" />
        </mxCell>
        <mxCell id="LIRwoS4u0499D45nPthz-5" value="&lt;font style=&quot;font-size: 15px;&quot;&gt;&lt;b&gt;Nahrávací&lt;/b&gt;&lt;/font&gt;&lt;div&gt;&lt;font style=&quot;font-size: 15px;&quot;&gt;&lt;b&gt;úloha&lt;/b&gt;&lt;/font&gt;&lt;/div&gt;" style="text;html=1;align=center;verticalAlign=middle;whiteSpace=wrap;rounded=0;" parent="1" vertex="1">
          <mxGeometry x="80" y="275" width="160" height="90" as="geometry" />
        </mxCell>
        <mxCell id="LIRwoS4u0499D45nPthz-6" value="&lt;font style=&quot;font-size: 15px;&quot;&gt;&lt;b&gt;semafor&lt;/b&gt;&lt;/font&gt;" style="text;html=1;align=center;verticalAlign=middle;whiteSpace=wrap;rounded=0;fillColor=#B9E0A5;strokeWidth=1;" parent="1" vertex="1">
          <mxGeometry x="360" y="200" width="80" height="240" as="geometry" />
        </mxCell>
        <mxCell id="LIRwoS4u0499D45nPthz-19" value="" style="group;strokeWidth=2;" parent="1" vertex="1" connectable="0">
          <mxGeometry x="920" y="620" width="160" height="120" as="geometry" />
        </mxCell>
        <mxCell id="LIRwoS4u0499D45nPthz-11" value="" style="rounded=0;whiteSpace=wrap;html=1;strokeColor=#000000;fillColor=#B9E0A5;strokeWidth=2;" parent="LIRwoS4u0499D45nPthz-19" vertex="1">
          <mxGeometry width="40" height="40" as="geometry" />
        </mxCell>
        <mxCell id="LIRwoS4u0499D45nPthz-12" value="" style="rounded=0;whiteSpace=wrap;html=1;fillColor=#ffe6cc;strokeColor=#000000;strokeWidth=2;" parent="LIRwoS4u0499D45nPthz-19" vertex="1">
          <mxGeometry y="80" width="40" height="40" as="geometry" />
        </mxCell>
        <mxCell id="LIRwoS4u0499D45nPthz-13" value="" style="rounded=0;whiteSpace=wrap;html=1;fillColor=#fff2cc;strokeColor=#000000;strokeWidth=2;" parent="LIRwoS4u0499D45nPthz-19" vertex="1">
          <mxGeometry y="40" width="40" height="40" as="geometry" />
        </mxCell>
        <mxCell id="LIRwoS4u0499D45nPthz-14" value="&lt;font style=&quot;font-size: 15px;&quot;&gt;&lt;b style=&quot;&quot;&gt;Software&lt;/b&gt;&lt;/font&gt;" style="text;html=1;align=center;verticalAlign=middle;whiteSpace=wrap;rounded=0;strokeColor=default;strokeWidth=2;" parent="LIRwoS4u0499D45nPthz-19" vertex="1">
          <mxGeometry x="40" width="120" height="40" as="geometry" />
        </mxCell>
        <mxCell id="LIRwoS4u0499D45nPthz-15" value="&lt;font style=&quot;font-size: 15px;&quot;&gt;&lt;b&gt;Firmware&lt;/b&gt;&lt;/font&gt;" style="text;html=1;align=center;verticalAlign=middle;whiteSpace=wrap;rounded=0;strokeColor=default;strokeWidth=2;" parent="LIRwoS4u0499D45nPthz-19" vertex="1">
          <mxGeometry x="40" y="40" width="120" height="40" as="geometry" />
        </mxCell>
        <mxCell id="LIRwoS4u0499D45nPthz-16" value="&lt;font style=&quot;font-size: 15px;&quot;&gt;&lt;b&gt;Hardware&lt;/b&gt;&lt;/font&gt;" style="text;html=1;align=center;verticalAlign=middle;whiteSpace=wrap;rounded=0;strokeColor=default;strokeWidth=2;" parent="LIRwoS4u0499D45nPthz-19" vertex="1">
          <mxGeometry x="40" y="80" width="120" height="40" as="geometry" />
        </mxCell>
        <mxCell id="LIRwoS4u0499D45nPthz-22" value="" style="group;strokeWidth=3;" parent="1" vertex="1" connectable="0">
          <mxGeometry x="80" y="560" width="160" height="120" as="geometry" />
        </mxCell>
        <mxCell id="LIRwoS4u0499D45nPthz-9" value="&lt;b&gt;&lt;font style=&quot;font-size: 15px;&quot;&gt;SDHC Firmware&lt;/font&gt;&lt;/b&gt;" style="rounded=0;whiteSpace=wrap;html=1;fillColor=#fff2cc;strokeColor=light-dark(#000000, #6d5100);strokeWidth=3;" parent="LIRwoS4u0499D45nPthz-22" vertex="1">
          <mxGeometry y="40" width="160" height="40" as="geometry" />
        </mxCell>
        <mxCell id="LIRwoS4u0499D45nPthz-10" value="&lt;b&gt;&lt;font style=&quot;font-size: 15px;&quot;&gt;Fyzická karta&lt;/font&gt;&lt;/b&gt;" style="rounded=0;whiteSpace=wrap;html=1;fillColor=#ffe6cc;strokeColor=light-dark(#000000, #996500);strokeWidth=3;" parent="LIRwoS4u0499D45nPthz-22" vertex="1">
          <mxGeometry y="80" width="160" height="40" as="geometry" />
        </mxCell>
        <mxCell id="LIRwoS4u0499D45nPthz-21" value="&lt;font style=&quot;font-size: 15px;&quot;&gt;&lt;b&gt;FATFS&lt;/b&gt;&lt;/font&gt;" style="rounded=0;whiteSpace=wrap;html=1;fillColor=#B9E0A5;strokeColor=light-dark(#000000, #446e2c);strokeWidth=3;" parent="LIRwoS4u0499D45nPthz-22" vertex="1">
          <mxGeometry width="160" height="40" as="geometry" />
        </mxCell>
        <mxCell id="LIRwoS4u0499D45nPthz-24" value="" style="endArrow=classic;html=1;rounded=0;exitX=0.5;exitY=1;exitDx=0;exitDy=0;entryX=0.5;entryY=0;entryDx=0;entryDy=0;strokeWidth=3;" parent="1" source="LIRwoS4u0499D45nPthz-2" target="LIRwoS4u0499D45nPthz-21" edge="1">
          <mxGeometry width="50" height="50" relative="1" as="geometry">
            <mxPoint x="390" y="450" as="sourcePoint" />
            <mxPoint x="440" y="400" as="targetPoint" />
          </mxGeometry>
        </mxCell>
        <mxCell id="LIRwoS4u0499D45nPthz-25" value="" style="endArrow=classic;html=1;rounded=0;exitX=1;exitY=0.5;exitDx=0;exitDy=0;entryX=0.25;entryY=1;entryDx=0;entryDy=0;strokeWidth=3;" parent="1" source="LIRwoS4u0499D45nPthz-9" target="LIRwoS4u0499D45nPthz-3" edge="1">
          <mxGeometry width="50" height="50" relative="1" as="geometry">
            <mxPoint x="390" y="550" as="sourcePoint" />
            <mxPoint x="440" y="500" as="targetPoint" />
            <Array as="points">
              <mxPoint x="600" y="620" />
            </Array>
          </mxGeometry>
        </mxCell>
        <mxCell id="LIRwoS4u0499D45nPthz-38" value="" style="endArrow=classic;html=1;rounded=0;exitX=1;exitY=0.75;exitDx=0;exitDy=0;strokeWidth=3;" parent="1" source="LIRwoS4u0499D45nPthz-34" edge="1">
          <mxGeometry width="50" height="50" relative="1" as="geometry">
            <mxPoint x="300" y="670" as="sourcePoint" />
            <mxPoint x="80" y="420" as="targetPoint" />
          </mxGeometry>
        </mxCell>
        <mxCell id="LIRwoS4u0499D45nPthz-39" value="" style="endArrow=classic;html=1;rounded=0;entryX=1;entryY=0.5;entryDx=0;entryDy=0;exitX=0;exitY=0.5;exitDx=0;exitDy=0;strokeWidth=3;" parent="1" source="LIRwoS4u0499D45nPthz-6" target="LIRwoS4u0499D45nPthz-2" edge="1">
          <mxGeometry width="50" height="50" relative="1" as="geometry">
            <mxPoint x="200" y="540" as="sourcePoint" />
            <mxPoint x="250" y="490" as="targetPoint" />
          </mxGeometry>
        </mxCell>
        <mxCell id="LIRwoS4u0499D45nPthz-40" value="" style="endArrow=classic;html=1;rounded=0;entryX=0;entryY=0.5;entryDx=0;entryDy=0;exitX=1;exitY=0.5;exitDx=0;exitDy=0;strokeWidth=3;" parent="1" source="LIRwoS4u0499D45nPthz-6" target="LIRwoS4u0499D45nPthz-3" edge="1">
          <mxGeometry width="50" height="50" relative="1" as="geometry">
            <mxPoint x="370" y="330" as="sourcePoint" />
            <mxPoint x="250" y="330" as="targetPoint" />
          </mxGeometry>
        </mxCell>
        <mxCell id="LIRwoS4u0499D45nPthz-41" value="&lt;font style=&quot;font-size: 15px;&quot;&gt;&lt;b&gt;Inicializace&lt;/b&gt;&lt;/font&gt;" style="rounded=0;whiteSpace=wrap;html=1;fillColor=#B9E0A5;strokeWidth=3;" parent="1" vertex="1">
          <mxGeometry x="290" y="10" width="220" height="120" as="geometry" />
        </mxCell>
        <mxCell id="LIRwoS4u0499D45nPthz-42" value="" style="endArrow=classic;html=1;rounded=0;exitX=0;exitY=0.5;exitDx=0;exitDy=0;entryX=0;entryY=0.5;entryDx=0;entryDy=0;strokeWidth=3;" parent="1" source="LIRwoS4u0499D45nPthz-41" target="LIRwoS4u0499D45nPthz-34" edge="1">
          <mxGeometry width="50" height="50" relative="1" as="geometry">
            <mxPoint x="90" y="90" as="sourcePoint" />
            <mxPoint x="140" y="40" as="targetPoint" />
            <Array as="points">
              <mxPoint x="-200" y="70" />
              <mxPoint x="-200" y="410" />
            </Array>
          </mxGeometry>
        </mxCell>
        <mxCell id="LIRwoS4u0499D45nPthz-43" value="" style="endArrow=classic;html=1;rounded=0;exitX=0.5;exitY=1;exitDx=0;exitDy=0;entryX=0.5;entryY=0;entryDx=0;entryDy=0;strokeWidth=3;" parent="1" source="LIRwoS4u0499D45nPthz-41" target="LIRwoS4u0499D45nPthz-6" edge="1">
          <mxGeometry width="50" height="50" relative="1" as="geometry">
            <mxPoint x="160" y="420" as="sourcePoint" />
            <mxPoint x="210" y="370" as="targetPoint" />
          </mxGeometry>
        </mxCell>
        <mxCell id="LIRwoS4u0499D45nPthz-50" value="" style="endArrow=classic;html=1;rounded=0;exitX=0;exitY=0.5;exitDx=0;exitDy=0;entryX=0.5;entryY=1;entryDx=0;entryDy=0;strokeWidth=3;" parent="1" source="LIRwoS4u0499D45nPthz-47" target="LIRwoS4u0499D45nPthz-6" edge="1">
          <mxGeometry width="50" height="50" relative="1" as="geometry">
            <mxPoint x="380" y="350" as="sourcePoint" />
            <mxPoint x="430" y="300" as="targetPoint" />
            <Array as="points">
              <mxPoint x="400" y="520" />
            </Array>
          </mxGeometry>
        </mxCell>
        <mxCell id="LIRwoS4u0499D45nPthz-51" value="&lt;font style=&quot;font-size: 14px;&quot;&gt;&lt;b&gt;detekce připojení/odpojení&lt;/b&gt;&lt;/font&gt;" style="text;html=1;align=center;verticalAlign=middle;whiteSpace=wrap;rounded=0;" parent="1" vertex="1">
          <mxGeometry x="400" y="490" width="200" height="30" as="geometry" />
        </mxCell>
        <mxCell id="LIRwoS4u0499D45nPthz-53" value="" style="endArrow=classic;startArrow=classic;html=1;rounded=0;exitX=1.013;exitY=0.422;exitDx=0;exitDy=0;exitPerimeter=0;entryX=0.282;entryY=-0.075;entryDx=0;entryDy=0;entryPerimeter=0;strokeWidth=3;" parent="1" source="LIRwoS4u0499D45nPthz-4" target="LIRwoS4u0499D45nPthz-44" edge="1">
          <mxGeometry width="50" height="50" relative="1" as="geometry">
            <mxPoint x="760" y="310" as="sourcePoint" />
            <mxPoint x="810" y="260" as="targetPoint" />
            <Array as="points">
              <mxPoint x="879" y="318" />
            </Array>
          </mxGeometry>
        </mxCell>
        <mxCell id="LIRwoS4u0499D45nPthz-54" value="&lt;font style=&quot;font-size: 14px;&quot;&gt;&lt;b&gt;přenos dat&lt;/b&gt;&lt;/font&gt;" style="text;html=1;align=center;verticalAlign=middle;whiteSpace=wrap;rounded=0;strokeWidth=3;" parent="1" vertex="1">
          <mxGeometry x="710" y="285" width="180" height="30" as="geometry" />
        </mxCell>
        <mxCell id="LIRwoS4u0499D45nPthz-63" value="" style="endArrow=classic;html=1;rounded=0;entryX=0.25;entryY=0;entryDx=0;entryDy=0;exitX=0;exitY=0.75;exitDx=0;exitDy=0;strokeWidth=4;" parent="1" source="LIRwoS4u0499D45nPthz-60" target="LIRwoS4u0499D45nPthz-3" edge="1">
          <mxGeometry width="50" height="50" relative="1" as="geometry">
            <mxPoint x="590" y="110" as="sourcePoint" />
            <mxPoint x="430" y="200" as="targetPoint" />
            <Array as="points">
              <mxPoint x="600" y="150" />
            </Array>
          </mxGeometry>
        </mxCell>
        <mxCell id="LIRwoS4u0499D45nPthz-64" value="" style="endArrow=classic;html=1;rounded=0;entryX=0.5;entryY=0;entryDx=0;entryDy=0;strokeWidth=4;" parent="1" target="LIRwoS4u0499D45nPthz-2" edge="1">
          <mxGeometry width="50" height="50" relative="1" as="geometry">
            <mxPoint x="600" y="150" as="sourcePoint" />
            <mxPoint x="430" y="-30" as="targetPoint" />
            <Array as="points">
              <mxPoint x="160" y="150" />
            </Array>
          </mxGeometry>
        </mxCell>
        <mxCell id="LIRwoS4u0499D45nPthz-32" value="" style="endArrow=classic;html=1;rounded=0;exitX=1;exitY=0.5;exitDx=0;exitDy=0;strokeWidth=3;" parent="1" source="LIRwoS4u0499D45nPthz-29" edge="1">
          <mxGeometry width="50" height="50" relative="1" as="geometry">
            <mxPoint x="410" y="420" as="sourcePoint" />
            <mxPoint x="80" y="300" as="targetPoint" />
          </mxGeometry>
        </mxCell>
        <mxCell id="LIRwoS4u0499D45nPthz-27" value="" style="rounded=0;whiteSpace=wrap;html=1;fillColor=#B9E0A5;strokeColor=light-dark(#000000, #446e2c);container=0;strokeWidth=3;" parent="1" vertex="1">
          <mxGeometry x="-160" y="240" width="160" height="40" as="geometry" />
        </mxCell>
        <mxCell id="LIRwoS4u0499D45nPthz-28" value="&lt;font style=&quot;font-size: 15px;&quot;&gt;&lt;b&gt;UART&lt;/b&gt;&lt;/font&gt;" style="text;html=1;align=center;verticalAlign=middle;whiteSpace=wrap;rounded=0;container=0;strokeWidth=4;" parent="1" vertex="1">
          <mxGeometry x="-160" y="240" width="160" height="40" as="geometry" />
        </mxCell>
        <mxCell id="LIRwoS4u0499D45nPthz-29" value="&lt;b&gt;&lt;font style=&quot;font-size: 15px;&quot;&gt;LPUART Driver&lt;/font&gt;&lt;/b&gt;" style="rounded=0;whiteSpace=wrap;html=1;fillColor=#fff2cc;strokeColor=light-dark(#000000, #6d5100);container=0;strokeWidth=3;" parent="1" vertex="1">
          <mxGeometry x="-160" y="280" width="160" height="40" as="geometry" />
        </mxCell>
        <mxCell id="LIRwoS4u0499D45nPthz-30" value="&lt;font style=&quot;font-size: 15px;&quot;&gt;&lt;b&gt;LPUART Periferie&lt;/b&gt;&lt;/font&gt;" style="rounded=0;whiteSpace=wrap;html=1;fillColor=#ffe6cc;strokeColor=light-dark(#000000, #996500);container=0;strokeWidth=3;" parent="1" vertex="1">
          <mxGeometry x="-160" y="320" width="160" height="40" as="geometry" />
        </mxCell>
        <mxCell id="LIRwoS4u0499D45nPthz-34" value="&lt;font style=&quot;font-size: 15px;&quot;&gt;&lt;b&gt;Externí RTC&lt;/b&gt;&lt;/font&gt;" style="rounded=0;whiteSpace=wrap;html=1;fillColor=#B9E0A5;strokeColor=light-dark(#000000, #446e2c);strokeWidth=3;" parent="1" vertex="1">
          <mxGeometry x="-160" y="390" width="160" height="40" as="geometry" />
        </mxCell>
        <mxCell id="LIRwoS4u0499D45nPthz-35" value="&lt;font style=&quot;font-size: 15px;&quot;&gt;&lt;b&gt;DS3231 Driver&lt;/b&gt;&lt;/font&gt;" style="rounded=0;whiteSpace=wrap;html=1;fillColor=#fff2cc;strokeColor=light-dark(#000000, #6d5100);strokeWidth=3;" parent="1" vertex="1">
          <mxGeometry x="-160" y="430" width="160" height="40" as="geometry" />
        </mxCell>
        <mxCell id="LIRwoS4u0499D45nPthz-36" value="&lt;font style=&quot;font-size: 15px;&quot;&gt;&lt;b&gt;DS3231 čip&lt;/b&gt;&lt;/font&gt;" style="rounded=0;whiteSpace=wrap;html=1;fillColor=#ffe6cc;strokeColor=light-dark(#000000, #996500);strokeWidth=3;" parent="1" vertex="1">
          <mxGeometry x="-160" y="470" width="160" height="40" as="geometry" />
        </mxCell>
        <mxCell id="LIRwoS4u0499D45nPthz-44" value="&lt;font style=&quot;font-size: 15px;&quot;&gt;&lt;b&gt;USB Software&lt;/b&gt;&lt;/font&gt;" style="rounded=0;whiteSpace=wrap;html=1;fillColor=#B9E0A5;strokeColor=light-dark(#000000, #446e2c);container=0;strokeWidth=3;" parent="1" vertex="1">
          <mxGeometry x="800" y="460" width="280" height="40" as="geometry" />
        </mxCell>
        <mxCell id="LIRwoS4u0499D45nPthz-45" value="&lt;b&gt;&lt;font style=&quot;font-size: 15px;&quot;&gt;EHCI Kontrolér&lt;/font&gt;&lt;/b&gt;" style="rounded=0;whiteSpace=wrap;html=1;fillColor=#fff2cc;strokeColor=light-dark(#000000, #6d5100);container=0;strokeWidth=3;" parent="1" vertex="1">
          <mxGeometry x="920" y="500" width="160" height="40" as="geometry" />
        </mxCell>
        <mxCell id="LIRwoS4u0499D45nPthz-46" value="&lt;font style=&quot;font-size: 15px;&quot;&gt;&lt;b&gt;Fyzické USB-C&lt;/b&gt;&lt;/font&gt;" style="rounded=0;whiteSpace=wrap;html=1;fillColor=#ffe6cc;strokeColor=light-dark(#000000, #996500);container=0;strokeWidth=3;" parent="1" vertex="1">
          <mxGeometry x="800" y="540" width="280" height="40" as="geometry" />
        </mxCell>
        <mxCell id="LIRwoS4u0499D45nPthz-47" value="&lt;b&gt;&lt;font style=&quot;font-size: 15px;&quot;&gt;OTG&lt;/font&gt;&lt;/b&gt;" style="rounded=0;whiteSpace=wrap;html=1;fillColor=#fff2cc;strokeColor=light-dark(#000000, #6d5100);container=0;strokeWidth=3;" parent="1" vertex="1">
          <mxGeometry x="800" y="500" width="120" height="40" as="geometry" />
        </mxCell>
        <mxCell id="LIRwoS4u0499D45nPthz-59" value="&lt;font style=&quot;font-size: 15px;&quot;&gt;&lt;b&gt;Detekce ztráty napájení&lt;/b&gt;&lt;/font&gt;" style="rounded=0;whiteSpace=wrap;html=1;fillColor=#B9E0A5;strokeColor=light-dark(#000000, #446e2c);strokeWidth=3;" parent="1" vertex="1">
          <mxGeometry x="640" y="40" width="200" height="40" as="geometry" />
        </mxCell>
        <mxCell id="LIRwoS4u0499D45nPthz-60" value="&lt;font style=&quot;font-size: 15px;&quot;&gt;&lt;b&gt;GPIO&lt;/b&gt;&lt;/font&gt;" style="rounded=0;whiteSpace=wrap;html=1;fillColor=#ffe6cc;strokeColor=light-dark(#000000, #996500);strokeWidth=3;" parent="1" vertex="1">
          <mxGeometry x="640" y="120" width="200" height="40" as="geometry" />
        </mxCell>
        <mxCell id="LIRwoS4u0499D45nPthz-61" value="&lt;font style=&quot;font-size: 15px;&quot;&gt;&lt;b&gt;GPIO Driver&lt;/b&gt;&lt;/font&gt;" style="rounded=0;whiteSpace=wrap;html=1;fillColor=#fff2cc;strokeColor=light-dark(#000000, #6d5100);strokeWidth=3;" parent="1" vertex="1">
          <mxGeometry x="640" y="80" width="200" height="40" as="geometry" />
        </mxCell>
      </root>
    </mxGraphModel>
  </diagram>
</mxfile>
